<?xml version="1.0" standalone="no"?>
<!DOCTYPE svg PUBLIC "-//W3C//DTD SVG 20010904//EN"
 "http://www.w3.org/TR/2001/REC-SVG-20010904/DTD/svg10.dtd">
<svg version="1.0" xmlns="http://www.w3.org/2000/svg"
 width="1536.000000pt" height="1024.000000pt" viewBox="0 0 1536.000000 1024.000000"
 preserveAspectRatio="xMidYMid meet">

<g transform="translate(0.000000,1024.000000) scale(0.100000,-0.100000)"
fill="#000000" stroke="none">
<path d="M1940 6906 c0 -3 26 -29 58 -58 31 -30 140 -133 241 -229 101 -96
253 -239 337 -318 l154 -145 0 -62 c0 -65 -23 -192 -40 -224 -8 -16 -24 -20
-82 -22 l-72 -3 -176 -485 c-96 -267 -192 -531 -212 -587 l-36 -103 467 0 467
0 56 153 c31 83 80 217 109 297 28 80 52 146 53 147 1 1 47 -42 102 -95 55
-53 195 -188 311 -299 l211 -203 743 0 c628 0 741 2 729 14 -8 7 -85 58 -170
112 -146 93 -606 398 -622 413 -4 4 35 8 88 9 178 4 294 46 389 141 31 31 67
78 80 106 26 54 153 452 187 587 28 113 22 269 -16 378 -61 174 -200 337 -348
409 -156 75 -53 71 -1610 71 -769 0 -1398 -2 -1398 -4z m2748 -115 c116 -8
128 -11 206 -50 141 -69 246 -203 277 -350 23 -113 10 -182 -94 -497 -55 -164
-110 -310 -126 -336 -16 -25 -50 -60 -75 -77 -91 -63 -101 -64 -453 -70 l-323
-6 108 -89 c59 -49 150 -122 202 -162 94 -71 442 -320 475 -339 11 -7 -136 -9
-451 -7 l-467 3 -116 97 c-179 151 -505 440 -621 550 l-105 100 -124 -374
-125 -374 -235 -1 c-130 0 -246 -2 -258 -5 -13 -2 -23 -1 -23 2 0 7 85 273
221 697 l90 277 925 0 c984 0 953 -1 995 46 16 18 159 432 159 459 0 7 -9 24
-21 39 l-20 26 -1007 0 -1007 0 -227 218 c-124 119 -226 220 -227 224 -1 10
2296 9 2447 -1z"/>
<path d="M5070 6904 c0 -3 40 -74 88 -157 49 -84 156 -269 237 -412 82 -143
200 -345 263 -450 63 -104 137 -226 164 -271 l48 -81 -119 -359 c-66 -197
-131 -390 -145 -428 -14 -37 -26 -70 -26 -72 0 -2 208 -4 463 -4 l462 0 43
143 c24 78 78 254 120 390 l77 248 194 212 c107 117 305 334 440 482 285 314
589 641 655 705 25 24 46 48 46 52 0 4 -201 8 -447 8 l-448 0 -176 -148 c-387
-324 -556 -467 -591 -501 -24 -22 -41 -31 -47 -26 -13 13 -305 434 -394 567
l-72 108 -417 0 c-230 0 -418 -3 -418 -6z m1013 -496 c142 -211 262 -390 267
-398 7 -12 23 -1 82 56 40 39 109 102 153 140 44 39 190 169 325 290 135 120
266 236 291 257 l46 37 282 3 281 2 -358 -358 c-196 -197 -469 -467 -607 -600
-137 -132 -253 -246 -257 -253 -8 -11 -86 -262 -179 -574 -27 -91 -52 -173
-55 -182 -5 -16 -29 -18 -260 -20 -195 -2 -254 0 -254 9 0 7 20 79 45 160 25
82 59 193 76 248 17 55 48 157 70 228 l40 127 -77 118 c-43 64 -155 239 -249
387 -95 149 -232 365 -306 480 -74 116 -138 215 -141 220 -4 7 85 9 260 8
l267 -1 258 -384z"/>
<path d="M8440 6898 c-25 -5 -88 -22 -140 -38 -205 -63 -389 -216 -488 -408
-56 -107 -318 -785 -462 -1197 -96 -271 -339 -990 -336 -992 1 -2 83 30 182
71 98 40 287 117 419 171 132 54 267 111 301 126 l61 27 45 103 c25 57 80 188
124 291 l78 187 531 3 530 3 60 31 c95 50 131 92 495 571 47 61 218 285 380
498 260 340 420 554 420 562 0 8 -2162 -1 -2200 -9z m1772 -106 l187 -3 -92
-122 c-109 -144 -231 -268 -313 -317 l-58 -35 -696 -5 c-750 -6 -721 -3 -805
-60 -49 -34 -128 -116 -148 -156 -24 -48 -213 -560 -399 -1084 -44 -124 -84
-237 -90 -252 -7 -19 -25 -35 -56 -49 -81 -37 -515 -229 -517 -229 -6 0 420
1139 571 1528 122 313 146 366 205 453 53 79 176 190 256 231 74 39 206 83
287 97 47 8 1243 10 1668 3z m-363 -824 c-267 -343 -365 -450 -449 -491 l-56
-27 -561 2 -561 3 67 170 c37 94 75 184 83 200 26 48 113 123 181 155 l62 30
633 0 634 0 -33 -42z"/>
<path d="M8688 6773 c6 -2 18 -2 25 0 6 3 1 5 -13 5 -14 0 -19 -2 -12 -5z"/>
<path d="M8813 6773 c15 -2 37 -2 50 0 12 2 0 4 -28 4 -27 0 -38 -2 -22 -4z"/>
<path d="M8917 6773 c18 -2 50 -2 70 0 21 2 7 4 -32 4 -38 0 -55 -2 -38 -4z"/>
<path d="M9032 6775 c2 -3 39 -5 81 -6 50 -1 77 -5 77 -13 0 -7 3 -7 8 2 6 8
28 12 62 11 l53 -2 -23 -19 c-13 -11 -17 -18 -9 -18 9 0 10 -3 3 -8 -15 -10
-25 -40 -14 -47 4 -3 7 -13 5 -23 -2 -9 -4 -23 -4 -29 -1 -7 -5 -13 -11 -13
-5 0 -7 6 -4 14 3 7 -2 16 -11 20 -9 3 -13 2 -10 -3 9 -15 -15 -25 -28 -12 -9
9 -8 17 1 32 8 12 9 18 3 14 -7 -4 -11 6 -11 28 0 38 -23 52 -54 35 -10 -5
-25 -6 -34 -2 -27 11 -42 13 -42 4 0 -21 13 -40 28 -40 21 0 12 -6 -22 -14
-26 -6 -28 -5 -16 9 7 8 10 18 7 22 -4 3 -9 -2 -13 -11 -3 -9 -10 -14 -14 -11
-5 3 -1 -13 7 -35 9 -22 20 -37 26 -33 6 3 7 1 3 -6 -6 -9 -11 -9 -21 -1 -9 7
-16 6 -24 -4 -9 -10 -8 -16 2 -25 8 -6 18 -7 22 -3 5 4 5 1 0 -6 -5 -10 -10
-11 -18 -3 -6 6 -15 11 -21 11 -5 0 -6 -3 -3 -7 4 -3 1 -13 -6 -21 -10 -13 -9
-15 8 -8 15 5 17 4 8 -5 -14 -14 -36 -2 -26 14 12 20 10 47 -3 47 -7 0 -16 -5
-20 -12 -4 -7 -3 -8 4 -4 7 4 12 3 12 -3 0 -5 -5 -13 -10 -16 -6 -4 -8 -11 -5
-16 4 -5 1 -9 -5 -9 -7 0 -11 16 -9 43 2 31 -1 41 -11 39 -11 -2 -11 0 -1 11
10 13 13 82 2 72 -2 -3 -10 0 -18 6 -7 6 -13 8 -13 4 0 -4 8 -13 17 -20 15
-11 15 -15 4 -29 -7 -9 -10 -16 -6 -16 4 0 2 -7 -5 -15 -10 -12 -10 -18 0 -30
7 -9 10 -18 6 -22 -3 -3 -6 -1 -6 5 0 6 -6 9 -14 6 -11 -4 -14 2 -11 25 2 18
0 29 -5 26 -5 -3 -14 3 -20 12 -11 17 -11 17 -6 1 3 -10 2 -18 -2 -18 -4 0
-13 -4 -21 -9 -12 -8 -13 -12 -1 -26 7 -9 9 -15 4 -14 -18 5 -74 -13 -69 -21
3 -5 13 -6 22 -3 10 4 14 2 10 -4 -4 -6 -1 -14 5 -16 8 -3 6 -6 -5 -6 -11 -1
-15 -6 -11 -13 4 -7 3 -8 -5 -4 -6 4 -9 13 -5 19 3 7 -3 1 -14 -13 -12 -14
-24 -21 -28 -17 -4 4 -14 1 -23 -5 -9 -7 -13 -9 -9 -4 4 5 1 18 -7 29 -11 15
-12 24 -3 34 16 19 -7 17 -27 -3 -12 -12 -13 -19 -5 -24 8 -5 7 -9 -5 -13 -9
-4 -14 -3 -10 3 8 12 -34 29 -53 22 -11 -4 -11 -6 -1 -13 7 -4 16 -6 20 -3 4
2 9 -2 12 -9 3 -9 -4 -13 -22 -13 -29 1 -52 16 -44 30 3 4 -1 12 -8 17 -17 11
-39 12 -24 1 6 -4 16 -19 22 -34 11 -24 10 -28 -9 -34 -15 -4 -26 -1 -34 11
-12 16 -14 16 -20 2 -7 -20 4 -40 18 -31 7 5 8 2 3 -5 -4 -7 2 -22 16 -37 25
-27 20 -33 -6 -7 -15 14 -20 15 -39 3 l-21 -13 20 22 c19 22 19 23 2 36 -10 7
-18 16 -18 19 3 24 -1 27 -12 11 -13 -16 -14 -15 -10 16 4 32 3 33 -11 15 -9
-11 -16 -24 -16 -29 0 -4 -4 -5 -10 -2 -5 3 -19 1 -31 -5 -19 -10 -20 -9 -15
8 4 11 2 23 -4 27 -6 4 -9 1 -8 -7 2 -7 -3 -12 -9 -10 -7 1 -13 -5 -13 -14 0
-9 -8 -23 -17 -31 -11 -8 -12 -11 -3 -7 13 7 13 5 1 -9 -7 -9 -10 -17 -6 -17
4 0 2 -7 -5 -15 -7 -8 -17 -15 -22 -15 -7 0 -6 5 1 13 8 10 7 14 -4 14 -8 0
-15 -4 -15 -9 0 -4 -7 -8 -15 -8 -8 0 -15 5 -15 11 0 6 -9 8 -21 4 -13 -4 -27
-1 -39 10 -12 11 -20 13 -25 5 -3 -6 -1 -9 6 -8 6 2 14 -3 17 -11 3 -8 0 -11
-7 -7 -6 4 -11 2 -11 -4 0 -6 -5 -8 -12 -4 -7 4 -8 3 -4 -4 4 -8 15 -8 31 -2
16 6 25 6 25 0 0 -6 -8 -10 -18 -10 -21 0 -52 -30 -52 -50 0 -9 -3 -10 -13 -1
-8 6 -17 8 -21 4 -4 -4 -4 0 0 10 3 10 13 16 22 15 8 -2 17 4 20 12 3 8 1 12
-3 8 -5 -4 -14 -3 -21 3 -9 8 -16 5 -24 -11 -6 -11 -16 -18 -21 -14 -8 4 -8 1
-1 -12 7 -14 6 -23 -4 -32 -9 -8 -14 -9 -14 -2 0 6 -4 9 -9 5 -5 -3 -12 -1
-16 5 -7 12 -26 14 -23 3 0 -5 -2 -16 -7 -26 -7 -17 -8 -17 -21 2 -8 11 -11
28 -8 38 3 10 -6 -2 -19 -27 -40 -73 -190 -463 -190 -492 0 -15 -4 -25 -7 -23
-4 3 -23 -37 -43 -88 -19 -50 -39 -101 -43 -111 -5 -14 -4 -17 4 -12 7 4 12 2
12 -3 0 -6 -6 -11 -13 -11 -16 0 -51 -95 -41 -111 4 -7 3 -9 -3 -6 -17 11 -33
-48 -23 -82 4 -16 6 -32 2 -35 -3 -3 -1 -6 5 -6 13 0 43 33 43 48 0 7 4 12 10
12 5 0 7 6 4 14 -3 8 4 21 16 29 12 8 22 24 23 35 1 16 4 18 14 10 14 -11 43
-4 43 11 0 6 -6 8 -14 5 -11 -4 -13 0 -9 16 4 13 8 17 13 11 8 -13 30 24 32
54 1 13 10 20 25 21 22 2 27 -6 24 -32 -1 -6 6 -11 14 -11 8 0 15 7 15 14 0 8
5 11 10 8 6 -4 8 -10 5 -15 -5 -8 36 -22 44 -15 2 3 -1 5 -7 5 -6 0 -9 7 -6
15 4 11 2 13 -9 9 -8 -3 -18 -1 -21 5 -4 6 -14 7 -23 4 -10 -4 -14 -2 -10 4 4
6 0 18 -8 26 -21 22 -19 30 5 17 11 -6 26 -8 33 -4 9 6 9 4 -1 -8 -10 -13 -10
-17 3 -22 10 -4 15 1 15 14 0 11 4 20 10 20 5 0 7 -6 5 -13 -3 -7 9 -18 27
-27 l33 -14 -25 -7 c-29 -8 -27 -10 17 -14 25 -2 30 1 26 14 -3 9 0 8 8 -4 6
-11 13 -21 14 -23 6 -8 55 19 55 30 0 9 -3 8 -10 -2 -6 -9 -10 -10 -10 -3 0
16 17 26 25 14 3 -6 3 -22 -1 -36 -5 -20 -11 -24 -28 -19 -20 6 -20 5 -3 -8
15 -11 16 -18 7 -42 -6 -16 -9 -31 -7 -33 2 -2 17 32 32 74 16 43 66 179 112
302 68 184 81 227 71 240 -10 13 -10 14 2 4 11 -10 17 -7 32 17 20 34 24 53 5
29 -7 -8 -20 -18 -29 -22 -14 -5 -17 -1 -16 17 2 19 7 22 36 20 27 -1 37 4 55
28 12 17 21 35 19 40 -1 5 3 6 9 2 6 -3 14 -2 18 3 10 15 104 73 118 73 7 0
13 4 13 8 0 4 8 9 18 11 9 2 327 5 706 7 l688 4 62 32 c77 41 208 170 309 305
43 56 77 105 77 108 0 3 -302 5 -672 5 -369 0 -669 -2 -666 -5z m443 -15 c-3
-5 -1 -10 6 -10 8 0 8 -4 -1 -15 -10 -12 -10 -18 1 -32 10 -12 10 -15 1 -9 -8
5 -15 -1 -20 -15 -8 -19 -9 -20 -15 -5 -4 10 1 29 10 44 17 26 17 26 0 13 -15
-12 -17 -11 -17 13 0 20 5 26 21 26 11 0 17 -4 14 -10z m88 -3 c-3 -5 -14 -7
-24 -4 -10 3 -20 0 -22 -6 -2 -6 -9 -7 -15 -3 -23 14 -12 22 27 22 22 0 37 -4
34 -9z m164 -8 c-1 -22 -12 -25 -23 -7 -5 8 -10 6 -15 -8 -7 -16 -8 -15 -8 7
-1 22 4 27 23 27 18 0 24 -6 23 -19z m-587 -41 c0 -8 3 -9 8 -3 4 6 15 11 24
13 14 2 15 -1 5 -22 -8 -16 -14 -21 -19 -13 -6 9 -11 8 -18 -3 -5 -8 -10 -13
-11 -10 0 3 -2 15 -5 28 -2 12 1 22 6 22 6 0 10 -6 10 -12z m-252 -95 c1 -28
1 -28 -11 -5 -7 12 -17 19 -22 15 -4 -4 -5 -2 -1 5 13 21 32 13 34 -15z m592
12 c0 -8 -2 -15 -4 -15 -2 0 -6 7 -10 15 -3 8 -1 15 4 15 6 0 10 -7 10 -15z
m-252 -32 c-9 -10 -13 -24 -10 -32 2 -8 0 -11 -5 -8 -16 10 -13 59 3 53 8 -3
14 0 14 6 0 6 3 8 7 5 3 -4 -1 -15 -9 -24z m232 11 c0 -8 -5 -12 -10 -9 -6 4
-8 11 -5 16 9 14 15 11 15 -7z m-596 -26 c-3 -4 -11 -5 -19 -1 -21 7 -19 12 4
10 11 0 18 -5 15 -9z m120 -50 c-3 -4 -9 -8 -15 -8 -5 0 -9 4 -9 8 0 5 7 9 15
9 8 0 12 -4 9 -9z m-226 -20 c8 -10 4 -13 -13 -14 -19 -2 -21 1 -12 12 15 16
13 16 25 2z m222 -8 c0 -5 -5 -10 -11 -10 -5 0 -7 5 -4 10 3 6 8 10 11 10 2 0
4 -4 4 -10z m-395 -19 c3 -5 2 -12 -3 -15 -5 -3 -9 1 -9 9 0 17 3 19 12 6z
m215 -16 c14 -19 14 -19 -2 -6 -10 7 -18 18 -18 24 0 6 1 8 3 6 1 -2 9 -13 17
-24z m-300 5 c0 -5 -4 -10 -10 -10 -5 0 -10 5 -10 10 0 6 5 10 10 10 6 0 10
-4 10 -10z m274 -19 c-2 -3 -12 3 -22 13 -16 17 -16 18 5 5 12 -7 20 -15 17
-18z m-408 7 c4 -7 4 -10 -1 -6 -4 4 -15 2 -24 -5 -14 -11 -14 -10 -2 6 16 20
18 21 27 5z m78 4 c3 -5 -1 -9 -9 -9 -8 0 -12 4 -9 9 3 4 7 8 9 8 2 0 6 -4 9
-8z m-141 -69 c-5 -12 -3 -14 8 -8 8 4 11 4 6 0 -4 -5 -16 -10 -27 -12 -11 -1
-24 -4 -29 -5 -9 -3 -11 1 -11 23 0 8 5 7 16 -2 13 -11 17 -10 25 4 13 22 20
22 12 0z m227 -7 c0 -2 -7 -7 -16 -10 -8 -3 -12 -2 -9 4 6 10 25 14 25 6z
m-480 -91 c0 -3 -6 -5 -14 -5 -8 0 -17 -6 -20 -12 -3 -7 -3 2 0 20 3 24 1 31
-7 26 -8 -5 -9 -3 -4 5 5 9 12 7 26 -8 10 -11 19 -23 19 -26z m440 15 c-8 -5
-23 -10 -32 -10 -10 0 -18 -4 -18 -10 0 -5 -6 -10 -14 -10 -9 0 -12 7 -9 18 3
14 15 19 46 20 31 1 38 -1 27 -8z m-575 -92 c-7 -31 -25 -63 -25 -43 0 12 23
75 28 75 2 0 1 -15 -3 -32z m416 -25 c-8 -15 -10 -15 -11 -2 0 17 10 32 18 25
2 -3 -1 -13 -7 -23z m-151 -303 c0 -5 -2 -10 -4 -10 -3 0 -8 5 -11 10 -3 6 -1
10 4 10 6 0 11 -4 11 -10z m-427 -105 c4 -8 3 -16 -1 -19 -4 -3 -9 4 -9 15 -2
23 3 25 10 4z m362 -64 c-3 -6 -11 -9 -16 -6 -5 4 -9 -3 -9 -14 0 -11 -4 -23
-10 -26 -13 -8 -13 -3 0 30 6 16 14 23 22 19 8 -5 9 -2 4 12 -5 14 -4 16 5 7
6 -6 8 -16 4 -22z m-325 -47 c0 -8 -19 -13 -24 -6 -3 5 1 9 9 9 8 0 15 -2 15
-3z m17 -21 c0 -12 -9 -18 -24 -18 l-23 0 23 17 c27 22 26 22 24 1z m173 -3
c0 -5 -2 -10 -4 -10 -3 0 -8 5 -11 10 -3 6 -1 10 4 10 6 0 11 -4 11 -10z m45
-33 c3 -14 1 -28 -5 -32 -6 -4 -7 1 -3 11 4 12 3 15 -5 10 -7 -4 -12 -2 -12 3
0 6 5 11 12 11 9 0 9 3 0 12 -7 7 -12 17 -12 22 0 19 21 -10 25 -37z m32 37
c-3 -3 -12 -4 -19 -1 -8 3 -5 6 6 6 11 1 17 -2 13 -5z m-417 -248 c0 -20 -17
-29 -26 -15 -5 8 -3 9 6 4 10 -6 12 -4 7 8 -3 10 -2 17 3 17 6 0 10 -6 10 -14z"/>
<path d="M8910 6680 c-9 -6 -10 -10 -3 -10 6 0 15 5 18 10 8 12 4 12 -15 0z"/>
<path d="M8990 6681 c0 -7 -4 -10 -8 -7 -4 2 -8 -4 -8 -15 0 -10 3 -19 7 -19
8 0 20 42 14 49 -3 2 -5 -1 -5 -8z"/>
<path d="M8665 6660 c-4 -6 -4 -14 -1 -17 3 -4 6 0 6 8 0 12 2 12 10 -1 5 -8
12 -12 15 -9 3 4 -1 12 -9 18 -10 9 -16 9 -21 1z"/>
<path d="M9010 6666 c0 -2 7 -7 16 -10 8 -3 12 -2 9 4 -6 10 -25 14 -25 6z"/>
<path d="M9246 6658 c3 -5 10 -6 15 -3 13 9 11 12 -6 12 -8 0 -12 -4 -9 -9z"/>
<path d="M8440 6595 c-6 -8 -10 -19 -8 -24 1 -6 8 1 15 14 13 28 11 31 -7 10z"/>
<path d="M8629 6597 c7 -9 17 -15 21 -12 5 3 11 0 13 -5 3 -6 4 -5 3 2 -2 7
-7 13 -12 13 -5 0 -16 4 -24 10 -13 8 -13 7 -1 -8z"/>
<path d="M8472 6570 c0 -14 2 -19 5 -12 2 6 2 18 0 25 -3 6 -5 1 -5 -13z"/>
<path d="M8720 6554 c0 -8 5 -12 10 -9 6 3 10 10 10 16 0 5 -4 9 -10 9 -5 0
-10 -7 -10 -16z"/>
<path d="M8767 6563 c-4 -3 -7 -13 -7 -22 1 -13 3 -13 11 2 11 19 8 33 -4 20z"/>
<path d="M8393 6536 c0 -8 6 -12 14 -9 7 3 10 9 7 14 -8 14 -21 11 -21 -5z"/>
<path d="M8537 6543 c-13 -12 -7 -23 11 -22 10 0 12 3 4 6 -6 2 -10 9 -6 14 6
10 0 12 -9 2z"/>
<path d="M8019 6463 c-13 -16 -12 -17 4 -4 9 7 17 15 17 17 0 8 -8 3 -21 -13z"/>
<path d="M8206 6472 c-3 -4 4 -9 15 -9 23 -2 25 3 4 10 -8 4 -16 3 -19 -1z"/>
<path d="M8000 6382 c0 -4 9 -13 20 -20 11 -7 20 -9 20 -4 0 4 -9 13 -20 20
-11 7 -20 9 -20 4z"/>
<path d="M7800 5595 c-11 -13 -10 -14 4 -9 9 3 16 10 16 15 0 13 -6 11 -20 -6z"/>
<path d="M7683 5439 c-2 -23 3 -25 10 -4 4 8 3 16 -1 19 -4 3 -9 -4 -9 -15z"/>
<path d="M8012 5435 c-7 -14 -12 -34 -11 -43 0 -9 7 1 15 22 16 45 13 59 -4
21z"/>
<path d="M7541 5299 c-6 -18 -9 -34 -7 -36 2 -2 9 10 15 28 6 18 9 34 7 36 -2
2 -9 -10 -15 -28z"/>
<path d="M8603 5985 c-102 -31 -196 -115 -237 -208 -39 -88 -68 -174 -51 -152
8 11 18 25 22 30 5 6 9 23 9 38 1 16 9 36 18 46 9 10 16 25 16 33 0 9 3 24 6
33 5 13 8 14 15 3 7 -11 10 -10 21 1 11 12 10 13 -2 6 -12 -6 -12 -5 -3 5 13
14 36 4 30 -13 -1 -5 -14 -12 -27 -14 -37 -5 -37 -13 -1 -13 25 0 32 -4 28
-14 -4 -10 -1 -13 9 -9 10 4 12 9 6 15 -11 11 -4 48 8 48 5 0 11 8 14 18 3 9
17 18 31 18 14 1 23 -1 21 -5 -3 -4 4 -7 15 -7 17 0 18 2 6 11 -11 8 -12 13
-2 22 9 9 17 7 30 -5 16 -16 17 -16 5 7 -10 19 -10 22 2 15 17 -11 57 -17 42
-7 -6 5 -10 18 -9 31 1 16 -3 21 -12 17 -10 -3 -13 2 -11 17 2 14 11 24 23 26
17 3 17 1 5 -7 -12 -9 -9 -11 15 -11 21 0 26 3 16 9 -11 7 -11 9 0 13 8 3 20
-2 28 -10 13 -12 16 -12 26 2 10 13 46 16 256 19 l244 2 -285 2 c-212 1 -296
-2 -327 -12z m-15 -54 c4 -23 4 -23 -21 -5 -17 13 -21 21 -13 26 17 12 31 4
34 -21z m-108 -31 c0 -5 -5 -10 -11 -10 -5 0 -7 5 -4 10 3 6 8 10 11 10 2 0 4
-4 4 -10z m140 6 c0 -3 -4 -8 -10 -11 -5 -3 -10 -1 -10 4 0 6 5 11 10 11 6 0
10 -2 10 -4z m-73 -20 c-5 -16 -24 -18 -30 -4 -3 9 3 14 14 14 11 0 18 -5 16
-10z m-54 -13 c-7 -3 -13 -11 -13 -19 0 -9 -11 -14 -30 -14 -16 0 -30 5 -30
11 0 6 9 8 22 3 21 -6 22 -5 8 11 -13 17 -13 18 1 13 9 -3 22 -2 30 2 7 5 16
6 19 3 3 -3 -1 -8 -7 -10z"/>
<path d="M9283 5993 c9 -2 23 -2 30 0 6 3 -1 5 -18 5 -16 0 -22 -2 -12 -5z"/>
<path d="M8640 5910 c0 -5 7 -10 16 -10 8 0 12 5 9 10 -3 6 -10 10 -16 10 -5
0 -9 -4 -9 -10z"/>
<path d="M8406 5758 c3 -5 10 -6 15 -3 13 9 11 12 -6 12 -8 0 -12 -4 -9 -9z"/>
<path d="M8287 5573 c-8 -16 -18 -39 -22 -51 -7 -23 -7 -24 12 -5 11 10 18 21
16 25 -2 3 1 18 7 32 13 34 4 33 -13 -1z"/>
<path d="M8329 5583 c-13 -16 -12 -17 4 -4 9 7 17 15 17 17 0 8 -8 3 -21 -13z"/>
<path d="M8250 5478 c0 -5 42 -7 93 -6 94 1 82 5 -31 10 -34 2 -62 0 -62 -4z"/>
<path d="M8458 5473 c12 -2 32 -2 45 0 12 2 2 4 -23 4 -25 0 -35 -2 -22 -4z"/>
<path d="M10717 6874 c-40 -83 -297 -688 -452 -1064 -92 -223 -210 -508 -262
-635 -117 -282 -203 -494 -203 -500 0 -3 190 -5 423 -5 l423 0 21 58 c12 31
51 138 88 237 37 99 98 270 137 380 38 110 94 268 123 350 59 167 392 1080
423 1163 l20 52 -362 0 -362 0 -17 -36z m528 -91 c-4 -10 -42 -115 -85 -233
-42 -118 -137 -379 -211 -580 -73 -201 -198 -545 -278 -764 l-146 -399 -222
-1 c-123 -1 -223 2 -223 6 0 9 104 291 228 618 55 146 139 369 187 495 232
614 318 841 326 858 9 15 30 17 220 17 197 0 211 -1 204 -17z"/>
<path d="M11915 6903 c-207 -29 -402 -149 -514 -318 -68 -103 -92 -164 -324
-810 -168 -467 -170 -473 -164 -585 6 -110 30 -186 82 -265 66 -99 188 -186
320 -228 69 -22 76 -22 725 -22 654 0 655 0 735 23 246 71 424 230 508 457
133 354 344 960 359 1025 16 74 16 242 -1 310 -49 201 -204 353 -412 404 -57
14 -145 16 -675 15 -335 -1 -622 -4 -639 -6z m1265 -114 c138 -22 252 -106
308 -227 24 -52 27 -68 27 -172 l0 -115 -134 -355 c-73 -195 -166 -447 -207
-560 -87 -237 -116 -290 -201 -370 -110 -104 -243 -161 -413 -179 -47 -5 -319
-8 -606 -6 -498 4 -523 5 -583 25 -116 39 -199 109 -248 208 -25 51 -28 67
-28 157 l1 100 187 561 c196 588 213 627 306 735 82 95 224 171 366 198 71 13
1144 13 1225 0z"/>
<path d="M11960 6324 c-92 -52 -97 -61 -220 -409 -168 -476 -211 -606 -205
-626 3 -10 18 -28 32 -39 25 -19 39 -20 503 -20 l476 0 54 28 c30 15 62 39 73
53 10 14 92 230 183 480 176 483 177 488 132 536 l-21 23 -481 0 -481 0 -45
-26z"/>
</g>
</svg>
